<?xml version="1.0" encoding="UTF-8"?>
<svg width="752pt" height="752pt" version="1.1" viewBox="0 0 752 752" xmlns="http://www.w3.org/2000/svg">
 <g>
  <path d="m395.99 354.27h-39.973c-36.156 0.097656-70.805 14.523-96.348 40.113-25.547 25.59-39.91 60.262-39.949 96.418v112.95h312.56v-112.95c-0.035156-36.156-14.398-70.828-39.945-96.418-25.547-25.59-60.191-40.016-96.348-40.113zm-13.262 201.37-27.137-0.003906v-28.082h27.137zm27.469-88.133v-0.003906c-4.8789 6.5664-10.418 12.613-16.531 18.043-4.1445 3.5195-7.625 7.7539-10.273 12.504-1.7461 4.7695-2.4883 9.8477-2.1797 14.918v4.7344h-25.289v-4.7344c-0.25-7.5312 0.88672-15.047 3.3633-22.164 3.4141-7.4414 8.3711-14.074 14.539-19.465l7.2461-7.0078c1.8164-1.5742 3.4102-3.3906 4.7344-5.3984 1.8984-2.7969 2.9375-6.0898 2.9844-9.4727 0.007813-4.3633-1.5547-8.582-4.4062-11.887-3.6953-3.5547-8.7773-5.2852-13.875-4.7344-8.3828 0-13.688 2.6992-16.719 8.4766-2.1523 4.9258-3.2344 10.254-3.1719 15.629v4.7344h-25.289v-5.1602c-0.52734-12.535 3.875-24.773 12.266-34.098 8.8516-8.9414 21.109-13.668 33.672-12.977 11.598-0.51172 22.934 3.5352 31.586 11.27 8.0195 7.4688 12.438 18.027 12.125 28.984 0.19141 6.2773-1.4727 12.469-4.7812 17.805z"/>
  <path d="m376 148.26c-26.078 0-51.086 10.359-69.523 28.801s-28.793 43.453-28.789 69.527c0.003906 26.078 10.367 51.086 28.812 69.523 18.441 18.434 43.457 28.785 69.531 28.777 26.078-0.007813 51.086-10.375 69.516-28.824 18.434-18.445 28.781-43.461 28.77-69.539-0.039062-26.059-10.41-51.039-28.84-69.461-18.43-18.422-43.418-28.781-69.477-28.805z"/>
 </g>
</svg>
